<?xml version="1.0" encoding="UTF-8" standalone="no"?>
<!-- Created with Inkscape (http://www.inkscape.org/) -->

<svg
   xmlns:dc="http://purl.org/dc/elements/1.1/"
   xmlns:cc="http://creativecommons.org/ns#"
   xmlns:rdf="http://www.w3.org/1999/02/22-rdf-syntax-ns#"
   xmlns:svg="http://www.w3.org/2000/svg"
   xmlns="http://www.w3.org/2000/svg"
   xmlns:xlink="http://www.w3.org/1999/xlink"
   xmlns:sodipodi="http://sodipodi.sourceforge.net/DTD/sodipodi-0.dtd"
   xmlns:inkscape="http://www.inkscape.org/namespaces/inkscape"
   width="640"
   height="300"
   id="svg2"
   version="1.1"
   inkscape:version="0.48.3.1 r9886"
   sodipodi:docname="sharp_syslinux_isolinux.svg"
   inkscape:export-filename="../png/sharp_syslinux_isolinux.png"
   inkscape:export-xdpi="90"
   inkscape:export-ydpi="90">
  <defs
     id="defs4">
    <clipPath
       clipPathUnits="userSpaceOnUse"
       id="clipPath6333">
      <path
         inkscape:transform-center-y="-6.0309424"
         inkscape:transform-center-x="10.445848"
         transform="matrix(0.84547127,-0.22654335,0.22654335,0.84547127,700.63199,375.44528)"
         d="m 867.16606,1068.2604 c -19.95461,19.9546 -167.44511,59.4746 -194.70362,52.1707 -27.25851,-7.3039 -135.22905,-115.2744 -142.53294,-142.53294 -7.3039,-27.25851 32.21606,-174.74901 52.17067,-194.70362 19.95462,-19.95462 167.44512,-59.47458 194.70363,-52.17068 27.2585,7.30389 135.22904,115.27443 142.53294,142.53294 7.30389,27.25851 -32.21607,174.749 -52.17068,194.7036 z"
         inkscape:randomized="0"
         inkscape:rounded="0.14"
         inkscape:flatsided="true"
         sodipodi:arg2="1.3089969"
         sodipodi:arg1="0.78539816"
         sodipodi:r2="163.0752"
         sodipodi:r1="201.57202"
         sodipodi:cy="925.72748"
         sodipodi:cx="724.63312"
         sodipodi:sides="6"
         id="path6335"
         style="opacity:0.20535715;fill:url(#linearGradient6337);fill-opacity:1;stroke:none"
         sodipodi:type="star" />
    </clipPath>
    <linearGradient
       inkscape:collect="always"
       xlink:href="#linearGradient5986"
       id="linearGradient7698"
       gradientUnits="userSpaceOnUse"
       gradientTransform="translate(1.9161222,5.3266662)"
       x1="427.58691"
       y1="401.79758"
       x2="427.58691"
       y2="780.61914" />
    <linearGradient
       inkscape:collect="always"
       id="linearGradient5986">
      <stop
         style="stop-color:#193758;stop-opacity:1;"
         offset="0"
         id="stop5988" />
      <stop
         style="stop-color:#295782;stop-opacity:0.99607843"
         offset="1"
         id="stop5990" />
    </linearGradient>
    <linearGradient
       y2="780.61914"
       x2="427.58691"
       y1="401.79758"
       x1="427.58691"
       gradientTransform="translate(1.9161222,5.3266662)"
       gradientUnits="userSpaceOnUse"
       id="linearGradient3707"
       xlink:href="#linearGradient5986"
       inkscape:collect="always" />
    <linearGradient
       inkscape:collect="always"
       xlink:href="#linearGradient5986-1"
       id="linearGradient5992"
       x1="427.58691"
       y1="401.79758"
       x2="427.58691"
       y2="780.61914"
       gradientUnits="userSpaceOnUse"
       gradientTransform="translate(1563.6819,-277.37153)" />
    <linearGradient
       inkscape:collect="always"
       id="linearGradient5986-1">
      <stop
         style="stop-color:#193758;stop-opacity:1;"
         offset="0"
         id="stop5988-1" />
      <stop
         style="stop-color:#295782;stop-opacity:0.99607843"
         offset="1"
         id="stop5990-3" />
    </linearGradient>
    <linearGradient
       inkscape:collect="always"
       xlink:href="#linearGradient5986"
       id="linearGradient3910"
       gradientUnits="userSpaceOnUse"
       gradientTransform="translate(1.9161222,5.3266662)"
       x1="427.58691"
       y1="401.79758"
       x2="427.58691"
       y2="780.61914" />
    <linearGradient
       inkscape:collect="always"
       xlink:href="#linearGradient5986-0"
       id="linearGradient5992-6"
       x1="427.58691"
       y1="401.79758"
       x2="427.58691"
       y2="780.61914"
       gradientUnits="userSpaceOnUse"
       gradientTransform="translate(1563.6819,-277.37153)" />
    <linearGradient
       inkscape:collect="always"
       id="linearGradient5986-0">
      <stop
         style="stop-color:#193758;stop-opacity:1;"
         offset="0"
         id="stop5988-9" />
      <stop
         style="stop-color:#295782;stop-opacity:0.99607843"
         offset="1"
         id="stop5990-1" />
    </linearGradient>
  </defs>
  <sodipodi:namedview
     id="base"
     pagecolor="#ffffff"
     bordercolor="#666666"
     borderopacity="1.0"
     inkscape:pageopacity="0.0"
     inkscape:pageshadow="2"
     inkscape:zoom="2.6717773"
     inkscape:cx="320"
     inkscape:cy="150"
     inkscape:document-units="px"
     inkscape:current-layer="layer1"
     showgrid="false"
     borderlayer="true"
     inkscape:window-width="1024"
     inkscape:window-height="714"
     inkscape:window-x="0"
     inkscape:window-y="0"
     inkscape:window-maximized="1" />
  <metadata
     id="metadata7">
    <rdf:RDF>
      <cc:Work
         rdf:about="">
        <dc:format>image/svg+xml</dc:format>
        <dc:type
           rdf:resource="http://purl.org/dc/dcmitype/StillImage" />
        <dc:title></dc:title>
        <cc:license
           rdf:resource="" />
        <dc:creator>
          <cc:Agent>
            <dc:title />
          </cc:Agent>
        </dc:creator>
      </cc:Work>
    </rdf:RDF>
  </metadata>
  <g
     inkscape:label="Camada 1"
     inkscape:groupmode="layer"
     id="layer1"
     transform="translate(0,-752.36218)">
    <rect
       style="fill:#000000;fill-opacity:1;stroke:none"
       id="rect3123"
       width="640"
       height="300"
       x="0"
       y="752.36218"
       rx="0"
       ry="0" />
    <path
       style="fill:#4d4d4d;fill-opacity:1;stroke:none"
       d="M 541.3125 111.53125 C 539.3736 111.69372 537.43953 111.90539 535.5 112.09375 C 537.50353 111.9595 539.5842 111.92228 541.3125 111.53125 z M 533.5625 112.28125 C 532.1623 112.40234 530.73235 112.47914 529.34375 112.65625 L 531.09375 112.90625 C 531.81555 112.6421 532.7137 112.39611 533.5625 112.28125 z M 523.8125 113.40625 C 517.3152 113.801 508.30975 117.20942 511.09375 114.125 C 500.49365 118.85723 481.72255 125.43577 471.15625 135.34375 L 470.78125 133.125 C 465.94025 138.93581 449.6085 150.49813 448.3125 158.03125 L 447.09375 158.28125 C 444.57955 162.54728 442.9345 167.45792 440.9375 171.84375 C 438.4679 176.05607 437.0131 175.14875 436.625 174.8125 C 430.144 187.95069 426.80945 199.0668 424.03125 208.125 C 426.01125 211.08631 424.15705 225.94419 424.90625 237.84375 C 423.70859 259.50451 429.0016 280.91711 438.59375 300 L 458.1875 300 C 455.46098 295.90195 453.43192 291.64475 453.625 290 C 455.6132 292.6836 457.0701 293.13285 458.4375 293.59375 C 449.0216 270.23575 448.4391 292.27215 441.3125 269.78125 L 442.78125 269.65625 C 441.62885 267.90795 440.9897 266.07565 440.0625 264.21875 L 440.6875 257.6875 C 433.9124 249.8597 438.8316 224.31997 439.8125 210.34375 C 440.4851 204.66194 445.4024 198.61494 449.1875 189.125 L 446.96875 188.75 C 451.38035 181.0597 472.1258 157.84139 481.75 159.03125 C 486.4109 153.1777 480.81915 159.01444 479.90625 157.5625 C 490.14605 146.96788 493.3407 150.09611 500.25 148.1875 C 507.6968 143.76743 493.87605 149.85101 497.40625 146.4375 C 510.29005 143.15041 506.5093 138.98038 523.3125 137.3125 C 524.2001 137.81462 523.15295 138.2604 521.71875 138.6875 C 533.49205 135.26478 553.28115 136.9231 566.71875 143.125 C 584.22015 151.31068 603.94085 175.49637 604.71875 198.25 L 605.5625 198.5 C 605.1164 207.54662 607.02215 217.98618 603.84375 227.59375 L 605.9375 223.03125 C 606.1942 229.94324 603.9323 233.3726 601.875 239.3125 L 598.1875 241.03125 C 595.1633 246.90835 598.478 244.89054 596.3125 249.5625 C 591.5861 253.7596 582.0099 262.6819 578.9375 263.5 C 576.6918 263.453 580.41385 260.79685 580.90625 259.78125 C 574.58595 264.11885 575.88645 266.26555 566.21875 268.90625 L 566 268.3125 C 542.1677 279.5279 508.9402 257.28464 509.375 226.96875 C 509.1225 228.89118 508.68285 228.4152 508.15625 229.1875 C 506.92595 213.59163 515.36855 197.99966 529.59375 191.59375 C 543.50735 184.71022 559.8526 187.48589 569.8125 196.78125 C 564.342 189.61154 553.37585 182.01457 540.46875 182.71875 C 527.82075 182.92379 516.04195 190.98961 512.09375 199.71875 C 505.61625 203.79609 504.78995 215.36575 501.96875 217.5 C 498.16635 245.42412 509.1055 257.556 527.625 271.75 C 529.0788 272.7311 529.3602 273.21165 529.25 273.71875 C 551.0972 281.87565 573.5994 279.99315 592.5 264.84375 C 597.3119 261.09615 602.57475 254.67905 604.09375 254.59375 C 601.80755 258.03245 604.5057 256.24635 602.75 259.28125 C 607.534 251.55385 600.6522 256.16551 607.6875 245.96875 L 610.375 249.5625 C 609.4019 243.14214 618.31585 235.27021 617.40625 225.125 C 618.17615 223.96221 618.67935 224.19561 618.90625 225.25 C 618.79995 223.75717 618.76685 222.19657 619.03125 219.9375 C 619.86345 222.13493 621.03025 224.42988 621.59375 226.75 C 619.62485 219.09675 623.5727 213.91794 624.5625 209.46875 C 623.5838 209.03986 621.5998 212.84729 621.125 203.8125 C 621.196 199.88715 622.20165 201.68569 622.59375 200.71875 C 621.82675 200.27538 619.75885 197.23893 618.53125 191.46875 C 619.41565 190.10941 620.88045 195.08378 622.09375 195.28125 C 621.31255 190.69511 619.9322 187.0846 619.875 183.5625 C 616.3279 176.15244 618.6853 184.67169 615.8125 180.5 C 612.0361 168.72956 618.906 177.68828 619.375 172.34375 C 625.0911 180.62659 628.373 193.55584 629.875 198.875 C 628.7309 192.38846 626.9449 186.07978 624.6875 180 C 626.43 180.73525 621.84215 166.61637 626.90625 175.9375 C 621.50165 156.06763 603.731 137.52142 587.4375 128.8125 C 589.4257 130.63494 592.05455 132.88922 591.15625 133.25 C 583.04795 128.42879 584.4114 128.00601 583.25 125.96875 C 576.6551 123.28248 576.26945 126.1898 571.90625 125.96875 C 559.46045 119.3653 556.9525 120.1315 545.5 116 L 546.125 118.4375 C 537.8821 115.69087 536.5324 119.47352 527.625 118.4375 C 527.0849 118.01645 530.3893 116.8721 533.1875 116.46875 C 525.2165 117.52162 525.6743 114.85722 517.875 116.71875 C 519.7946 115.37128 521.764 114.55064 523.8125 113.40625 z M 533.1875 116.46875 L 534.65625 116.34375 L 534.78125 116.21875 L 533.1875 116.46875 z M 534.78125 116.21875 C 537.28745 115.66664 537.84065 115.09247 530.21875 114.875 C 532.50185 115.28142 535.16155 115.67227 534.78125 116.21875 z M 521.71875 138.6875 C 520.28505 139.11402 518.4884 139.50231 517.75 140.15625 C 518.9286 139.57912 520.26685 139.10925 521.71875 138.6875 z M 429.625 167.1875 C 429.87325 170.58292 428.47452 172.76301 428.21875 173.21875 C 428.55025 172.96739 429.3605 172.39192 430.8125 171.375 C 433.73628 164.79286 430.063 168.7656 429.625 167.1875 z M 424.90625 186.40625 C 421.20675 191.1383 423.2015 192.18779 422.8125 195.40625 C 424.154 191.29506 424.39425 188.78956 424.90625 186.40625 z M 577.21875 215.03125 C 576.68955 215.04655 576.06055 216.37758 575.71875 217.84375 C 576.51375 218.26175 577.1679 223.16422 577.9375 220.0625 C 578.1978 216.21267 577.74915 215.01747 577.21875 215.03125 z M 619.03125 226.5 C 619.07425 228.61522 618.62065 232.0575 617.53125 235.625 C 619.21565 231.2071 619.17915 228.84912 619.03125 226.5 z M 623.9375 227.96875 L 623.34375 229.5625 C 622.48165 235.6951 620.89395 241.76915 618.53125 247.59375 C 621.22075 241.28585 623.0537 234.69405 623.9375 227.96875 z M 574.5 230.8125 C 573.9251 233.6451 572.35975 236.1014 570.90625 238.6875 C 562.91535 243.7201 570.15095 235.70885 570.90625 232.65625 C 562.31765 243.47995 569.7521 239.13185 569.4375 242.15625 C 571.9921 238.63975 573.8448 234.7893 574.5 230.8125 z M 557.09375 247.34375 C 553.62335 248.19361 550.0649 248.2614 546.5 247.9375 C 542.2255 247.9935 547.32415 250.04545 552.90625 250.90625 C 554.45405 249.69945 555.84635 248.52801 557.09375 247.34375 z M 505.1875 258.1875 C 515.1863 276.092 545.76805 289.54135 561.78125 282.84375 C 554.37105 283.11985 544.9454 283.10565 536.625 280.03125 C 533.40086 278.37599 529.12649 275.03452 529.125 273.96875 C 528.96006 274.38803 528.71382 274.81689 528.875 275.4375 C 522.7229 272.5593 517.10395 268.1993 512.46875 262.875 C 514.92945 266.4711 517.53795 270.0032 520.96875 272.75 C 515.16325 270.7901 507.4441 258.6795 505.1875 258.1875 z M 529.125 273.96875 C 529.15848 273.88363 529.20004 273.80434 529.21875 273.71875 C 529.15077 273.77435 529.12487 273.87607 529.125 273.96875 z "
       transform="translate(0,752.36218)"
       id="rect3912" />
  </g>
</svg>
